<?xml version="1.0" standalone="no"?>
<!DOCTYPE svg PUBLIC "-//W3C//DTD SVG 20010904//EN"
 "http://www.w3.org/TR/2001/REC-SVG-20010904/DTD/svg10.dtd">
<svg version="1.0" xmlns="http://www.w3.org/2000/svg"
 width="500.000000pt" height="104.000000pt" viewBox="0 0 500.000000 104.000000"
 preserveAspectRatio="xMidYMid meet">

<g transform="translate(0.000000,104.000000) scale(0.100000,-0.100000)"
fill="#000000" stroke="none">
<path d="M294 701 c-48 -12 -100 -48 -123 -84 l-21 -32 0 53 c0 51 0 52 -30
52 l-30 0 0 -285 0 -285 30 0 30 0 0 179 c0 188 6 223 47 279 74 100 250 95
303 -8 18 -35 20 -58 20 -245 l0 -205 30 0 30 0 0 198 c0 207 -6 248 -43 303
-43 64 -158 102 -243 80z"/>
<path d="M978 697 c-135 -39 -211 -143 -211 -292 -1 -129 55 -221 168 -275 74
-35 189 -33 267 4 52 25 108 75 108 96 0 5 -10 14 -21 21 -19 10 -25 7 -45
-19 -80 -101 -292 -92 -372 17 -27 37 -54 109 -46 122 3 5 120 9 260 9 l254 0
0 53 c0 58 -30 132 -75 185 -60 71 -188 106 -287 79z m165 -60 c74 -32 136
-113 137 -179 l0 -28 -231 0 -231 0 7 33 c8 38 45 105 72 130 59 53 174 74
246 44z"/>
<path d="M1502 648 c51 -64 164 -211 172 -226 4 -7 -32 -62 -96 -145 -132
-168 -126 -157 -86 -157 31 0 41 9 130 125 l96 125 96 -125 c91 -117 99 -125
131 -125 l35 0 -114 147 c-97 125 -113 150 -102 163 25 30 183 235 190 248 5
8 -2 12 -26 12 -30 -1 -41 -10 -121 -115 l-88 -115 -90 115 c-85 108 -92 115
-126 115 l-35 0 34 -42z"/>
</g>
</svg>
